<?xml version="1.0" standalone="no"?>
<!DOCTYPE svg PUBLIC "-//W3C//DTD SVG 20010904//EN"
 "http://www.w3.org/TR/2001/REC-SVG-20010904/DTD/svg10.dtd">
<svg version="1.0" xmlns="http://www.w3.org/2000/svg"
 width="232.000000pt" height="300.000000pt" viewBox="0 0 232.000000 300.000000"
 preserveAspectRatio="xMidYMid meet">
<metadata>
Created by potrace 1.10, written by Peter Selinger 2001-2011
</metadata>
<g transform="translate(0.000000,300.000000) scale(0.100000,-0.100000)"
fill="#000000" stroke="none">
<path d="M1046 2549 l-108 -112 101 -101 c94 -95 101 -104 101 -141 0 -37 -7
-47 -88 -128 l-87 -87 -110 110 -110 110 88 87 87 88 92 -93 93 -92 -68 -67
-67 -68 -66 66 -65 65 47 47 47 47 37 -40 c35 -38 36 -40 18 -56 -10 -10 -18
-21 -18 -26 0 -16 25 -7 48 17 l23 24 -54 57 -54 57 -61 -64 -62 -63 80 -81
80 -80 83 83 82 82 -108 107 -108 107 -102 -102 -102 -103 118 -116 119 -116
-116 -116 -116 -116 -110 110 -110 110 85 85 85 85 92 -92 93 -93 -65 -65 -64
-65 -67 66 -66 66 46 43 46 44 37 -36 38 -37 -21 -22 c-13 -14 -17 -24 -10
-29 6 -3 22 6 35 22 l25 28 -53 53 -53 54 -54 -57 c-30 -32 -54 -61 -54 -65 0
-5 33 -43 74 -85 l74 -76 79 78 c43 43 77 81 76 85 -5 13 -197 208 -205 208
-5 0 -52 -44 -106 -98 l-97 -97 110 -110 c61 -60 110 -114 110 -118 0 -5 -47
-56 -105 -113 -58 -57 -105 -107 -105 -111 0 -5 44 -52 98 -106 l97 -97 108
108 107 107 -80 80 -80 79 -51 -49 c-28 -28 -65 -63 -81 -79 l-30 -29 61 -61
61 -61 50 50 c27 27 50 54 50 60 0 12 -42 55 -53 55 -14 0 -7 -31 8 -36 24 -9
18 -27 -20 -64 l-35 -34 -45 44 -44 45 64 66 64 66 65 -66 66 -66 -93 -93 -92
-92 -87 88 -87 88 109 109 110 110 115 -115 115 -115 -117 -117 -118 -118 100
-100 100 -100 107 107 108 108 -80 80 -80 80 -80 -80 -80 -80 60 -60 60 -60
55 55 55 54 -27 28 c-17 18 -30 25 -37 18 -6 -6 -1 -16 13 -27 l22 -18 -41
-40 -40 -39 -45 44 -45 44 66 67 66 66 64 -66 64 -65 -87 -90 c-49 -50 -89
-93 -91 -95 -1 -3 -42 34 -90 82 l-87 87 110 110 110 110 87 -87 c80 -79 88
-91 88 -125 0 -35 -9 -47 -101 -140 l-100 -102 110 -110 111 -111 110 110 110
110 -100 100 c-93 94 -100 103 -100 140 0 37 7 47 87 128 l86 89 109 -109 109
-109 -87 -86 -86 -86 -89 91 c-49 50 -89 92 -89 93 0 1 28 31 63 67 l63 66 67
-67 68 -68 -45 -42 c-25 -23 -47 -42 -49 -42 -3 0 -21 16 -41 36 l-37 37 21
22 c12 13 17 25 12 29 -5 3 -21 -7 -36 -23 l-27 -28 52 -51 c29 -29 55 -52 58
-52 4 0 32 26 64 58 l57 58 -78 77 c-42 42 -80 77 -84 77 -4 0 -40 -35 -81
-77 l-75 -77 44 -51 c24 -27 70 -76 103 -107 l59 -58 103 99 104 100 -118 118
-118 119 116 115 c64 63 118 113 120 111 2 -2 50 -50 106 -108 l103 -105 -84
-84 -85 -85 -93 92 -93 92 66 65 65 66 67 -67 67 -68 -44 -45 -44 -45 -40 39
c-39 39 -40 40 -21 61 28 31 8 38 -23 7 l-27 -27 55 -55 55 -55 60 60 60 60
-80 80 -80 80 -80 -80 -79 -80 99 -103 c55 -58 102 -105 105 -106 3 0 51 44
106 98 l102 100 -114 113 -114 113 112 112 113 113 -102 102 -102 102 -108
-107 -108 -107 82 -82 83 -83 80 80 80 79 -61 62 -61 62 -54 -56 -54 -56 22
-23 c21 -23 48 -31 48 -14 0 5 -9 15 -21 22 -20 14 -20 15 19 56 l40 41 46
-47 46 -47 -65 -64 -64 -64 -65 60 c-35 32 -64 63 -65 69 0 5 41 49 92 97 l92
88 85 -85 85 -85 -110 -110 -110 -110 -113 113 -113 114 117 115 118 115 -104
102 -104 101 -103 -102 c-57 -56 -103 -106 -103 -110 0 -13 142 -158 154 -158
6 0 46 35 89 78 l77 78 -63 62 -63 62 -54 -55 -54 -55 24 -25 c13 -14 30 -25
38 -25 12 0 9 7 -8 25 l-24 26 40 39 40 40 47 -48 47 -48 -68 -67 -68 -67 -67
68 -67 67 93 93 93 92 87 -87 88 -88 -109 -107 -108 -108 -89 90 c-81 82 -88
92 -87 126 1 34 12 49 102 139 l99 100 -111 113 c-61 61 -112 112 -113 112 -1
0 -50 -50 -109 -111z m196 -199 l-87 -85 -85 85 -85 85 85 85 85 85 87 -85 88
-84 -88 -86z m111 -423 l197 -192 -197 -198 -197 -198 -193 193 c-106 106
-193 195 -193 198 0 6 372 386 380 388 3 1 94 -85 203 -191z m-107 -818 l82
-82 -84 -86 -84 -86 -85 86 -86 85 83 82 c46 45 85 82 88 82 2 0 41 -37 86
-81z"/>
<path d="M1044 1855 c-60 -64 -110 -119 -112 -123 -3 -8 226 -238 230 -231 2
2 54 56 115 119 l113 115 -118 118 -119 119 -109 -117z m208 -33 l86 -87 -89
-95 -89 -95 -91 92 -91 92 83 90 c46 50 89 91 94 91 6 0 49 -40 97 -88z"/>
<path d="M340 1820 l-83 -91 91 -92 92 -92 90 90 c49 49 90 93 90 96 0 11
-170 174 -184 177 -7 2 -50 -38 -96 -88z m179 -13 c39 -38 71 -72 71 -76 0 -3
-33 -39 -74 -80 l-73 -73 -81 77 -81 77 72 72 c40 40 77 72 84 72 6 -1 43 -32
82 -69z"/>
<path d="M1779 1819 l-82 -90 91 -92 92 -92 93 93 92 92 -90 90 c-49 49 -95
90 -101 90 -7 0 -49 -41 -95 -91z m175 -12 l78 -73 -76 -79 -75 -80 -80 80
-81 79 73 71 c39 39 74 72 77 73 3 1 41 -31 84 -71z"/>
<path d="M254 741 c-2 -2 -4 -15 -4 -28 l0 -23 905 0 905 0 0 28 0 27 -901 0
c-495 0 -903 -2 -905 -4z"/>
<path d="M605 605 c-78 -28 -98 -89 -46 -147 27 -30 34 -33 102 -36 61 -2 80
1 107 17 17 12 32 28 32 36 0 22 -35 18 -51 -6 -17 -25 -90 -36 -132 -20 -54
21 -61 95 -12 127 35 23 112 21 138 -4 14 -12 29 -17 40 -13 17 6 17 7 -1 24
-40 37 -111 45 -177 22z"/>
<path d="M925 609 c-65 -19 -101 -80 -74 -128 31 -55 146 -79 224 -47 39 17
65 60 58 98 -13 66 -116 104 -208 77z m146 -45 c26 -23 25 -76 -2 -100 -16
-14 -36 -19 -79 -19 -48 0 -63 4 -85 25 -21 20 -25 31 -21 55 4 16 13 36 20
43 33 33 128 31 167 -4z"/>
<path d="M1245 613 c-29 -7 -55 -33 -55 -54 0 -22 22 -35 75 -44 80 -14 115
-26 115 -40 0 -45 -133 -46 -162 -2 -10 16 -38 17 -38 2 0 -31 51 -55 116 -55
71 0 111 14 120 43 10 32 -24 54 -106 69 -64 11 -75 16 -75 33 0 17 8 20 56
23 41 2 59 -1 69 -13 14 -17 50 -21 50 -5 0 29 -111 58 -165 43z"/>
<path d="M254 515 l0 -95 119 0 c88 0 118 3 115 12 -3 9 -31 11 -96 9 l-92 -3
0 36 0 36 85 0 c50 0 85 4 85 10 0 6 -36 10 -88 10 l-89 0 5 30 4 30 89 0 c53
0 89 4 89 10 0 6 -44 10 -113 10 l-113 0 0 -95z"/>
<path d="M1480 536 c0 -69 2 -76 28 -96 23 -19 37 -21 101 -18 96 5 111 21
111 119 0 62 -2 69 -20 69 -18 0 -20 -7 -20 -69 0 -61 -3 -72 -22 -85 -12 -9
-38 -16 -58 -16 -20 0 -46 7 -58 16 -19 13 -22 24 -22 85 0 62 -2 69 -20 69
-18 0 -20 -7 -20 -74z"/>
<path d="M1790 515 c0 -88 1 -95 20 -95 17 0 20 7 20 46 l0 47 45 -5 c33 -4
57 -16 93 -47 28 -22 60 -41 72 -41 20 0 21 2 9 17 -8 9 -31 29 -52 44 -36 26
-37 27 -13 33 26 6 56 31 56 47 0 5 -9 18 -20 29 -17 17 -33 20 -125 20 l-105
0 0 -95z m196 60 c19 -15 19 -15 0 -30 -13 -10 -43 -15 -88 -15 l-68 0 0 30 0
30 68 0 c45 0 75 -5 88 -15z"/>
</g>
</svg>
